<svg width="17" height="15" viewBox="0 0 17 15" fill="none" xmlns="http://www.w3.org/2000/svg">
<path d="M16 3.5L7.5 3.5M7.5 3.5C7.5 2.39543 6.60457 1.5 5.5 1.5C4.39543 1.5 3.5 2.39543 3.5 3.5M7.5 3.5C7.5 4.60457 6.60457 5.5 5.5 5.5C4.39543 5.5 3.5 4.60457 3.5 3.5M3.5 3.5L1 3.5M16 11.5L13.5 11.5M13.5 11.5C13.5 10.3954 12.6046 9.5 11.5 9.5C10.3954 9.5 9.5 10.3954 9.5 11.5M13.5 11.5C13.5 12.6046 12.6046 13.5 11.5 13.5C10.3954 13.5 9.5 12.6046 9.5 11.5M9.5 11.5H1" stroke="#7DC242" stroke-width="1.8" stroke-linecap="round"/>
</svg>
