<svg width="18" height="16" viewBox="0 0 18 16" fill="none" xmlns="http://www.w3.org/2000/svg">
<path d="M1.25 0.875006H2.15424C2.63263 0.875006 2.87183 0.875006 3.06628 0.961746C3.23771 1.03821 3.38415 1.16139 3.48886 1.31717C3.60763 1.49389 3.64862 1.72955 3.73058 2.20086L3.95652 3.50001M3.95652 3.50001L4.49173 6.57744C4.67091 7.60771 4.7605 8.12285 5.02583 8.49395C5.25945 8.82071 5.58606 9.06954 5.96311 9.20805C6.39133 9.36536 6.91176 9.315 7.95264 9.21427L14.4605 8.58447C14.7954 8.55206 14.9629 8.53585 15.1046 8.50086C15.8933 8.30604 16.4859 7.6534 16.6038 6.84953C16.625 6.70514 16.625 6.53689 16.625 6.20038V6.20038C16.625 5.84286 16.625 5.6641 16.6019 5.51329C16.4727 4.67141 15.8244 4.00372 14.9867 3.84967C14.8367 3.82207 14.658 3.81678 14.3006 3.8062L3.95652 3.50001Z" stroke="#7DC242" stroke-width="1.2" stroke-linecap="round" stroke-linejoin="round"/>
<circle cx="6.875" cy="13.25" r="1.5" stroke="#7DC242" stroke-width="1.2"/>
<circle cx="14" cy="13.25" r="1.5" stroke="#7DC242" stroke-width="1.2"/>
</svg>
