<svg width="23" height="23" viewBox="0 0 23 23" fill="none" xmlns="http://www.w3.org/2000/svg">
<path fill-rule="evenodd" clip-rule="evenodd" d="M4.30511 4.00002C4.05831 3.99986 3.8547 3.99974 3.67305 4.03363C2.83774 4.18948 2.18399 4.8627 2.03266 5.72291C1.99974 5.90997 1.99987 6.11965 2.00002 6.3738L2.00003 6.4553C1.99998 6.60134 1.99993 6.72385 2.01313 6.84312C2.0567 7.23679 2.20724 7.60656 2.44345 7.91197L2.44345 16.0614C2.44344 16.4445 2.44343 16.7707 2.46467 17.0385C2.487 17.3198 2.53588 17.5935 2.66535 17.8552C2.86055 18.2497 3.17201 18.5705 3.55511 18.7715C3.8092 18.9048 4.075 18.9552 4.34821 18.9781C4.60828 19 4.92503 19 5.29703 19H17.703C18.075 19 18.3917 19 18.6518 18.9781C18.925 18.9552 19.1908 18.9048 19.4449 18.7715C19.828 18.5705 20.1394 18.2497 20.3346 17.8552C20.4641 17.5935 20.513 17.3198 20.5353 17.0385C20.5566 16.7707 20.5566 16.4445 20.5566 16.0615V7.91198C20.7928 7.60656 20.9433 7.2368 20.9869 6.84312C21.0001 6.72385 21 6.60135 21 6.45531L21 6.37378C21.0001 6.11964 21.0003 5.90997 20.9673 5.72291C20.816 4.8627 20.1623 4.18948 19.327 4.03363C19.1453 3.99974 18.9417 3.99986 18.6949 4.00002H4.30511ZM19.2928 8.88624L12.9953 13.1017C12.6255 13.3499 12.3143 13.5587 11.9652 13.6431C11.6592 13.717 11.3408 13.717 11.0348 13.6431C10.6857 13.5587 10.3745 13.3499 10.0047 13.1017L3.70715 8.88624V16.0358C3.70715 16.4514 3.70764 16.724 3.72418 16.9325C3.74012 17.1334 3.76775 17.2168 3.79132 17.2644C3.86536 17.414 3.9835 17.5357 4.12881 17.612C4.17507 17.6362 4.25605 17.6647 4.45112 17.6811C4.65356 17.6981 4.91827 17.6986 5.32189 17.6986H17.6781C18.0817 17.6986 18.3464 17.6981 18.5489 17.6811C18.7439 17.6647 18.8249 17.6362 18.8712 17.612C19.0165 17.5357 19.1346 17.4141 19.2087 17.2644C19.2322 17.2168 19.2599 17.1334 19.2758 16.9325C19.2924 16.724 19.2928 16.4514 19.2928 16.0358V8.88624ZM3.89833 5.31415C3.95253 5.30403 4.03111 5.30141 4.35644 5.30141H18.6436C18.9689 5.30141 19.0475 5.30403 19.1017 5.31415C19.4185 5.37326 19.6665 5.62862 19.7239 5.95491C19.7337 6.01072 19.7363 6.09163 19.7363 6.42666C19.7363 6.6161 19.7353 6.65958 19.7313 6.69578C19.7086 6.90044 19.6098 7.08808 19.4555 7.21917C19.4282 7.24236 19.3933 7.26688 19.2391 7.37012L12.38 11.9614C11.8963 12.2851 11.782 12.3506 11.6765 12.3761C11.5604 12.4042 11.4396 12.4042 11.3235 12.3761C11.218 12.3506 11.1037 12.2851 10.62 11.9614L3.76093 7.37012C3.60669 7.26688 3.57182 7.24236 3.54453 7.21917C3.39024 7.08808 3.29136 6.90044 3.26871 6.69578C3.26471 6.65958 3.26375 6.6161 3.26375 6.42666C3.26375 6.09163 3.2663 6.01072 3.27612 5.95491C3.33352 5.62862 3.58149 5.37326 3.89833 5.31415Z" fill="#A1A4B2"/>
</svg>
