<svg width="23" height="23" viewBox="0 0 23 23" fill="none" xmlns="http://www.w3.org/2000/svg">
<path d="M17.8333 17.8333C19.2324 17.8333 20.3666 16.6991 20.3666 15.3V12.7667C20.3666 11.3675 19.2324 10.2333 17.8333 10.2333C17.1337 10.2333 16.5666 10.8004 16.5666 11.5V16.5667C16.5666 17.2662 17.1337 17.8333 17.8333 17.8333ZM17.8333 17.8333C17.8333 19.2325 16.6991 20.3667 15.3 20.3667H12.1333M20.3666 14.6667V11.5C20.3666 6.60307 16.3969 2.63333 11.5 2.63333C6.60304 2.63333 2.6333 6.60307 2.6333 11.5V14.6667M5.16663 17.8333C5.86619 17.8333 6.4333 17.2662 6.4333 16.5667V11.5C6.4333 10.8004 5.86619 10.2333 5.16663 10.2333C3.76751 10.2333 2.6333 11.3675 2.6333 12.7667V15.3C2.6333 16.6991 3.76751 17.8333 5.16663 17.8333Z" stroke="#A1A4B2" stroke-width="1.75"/>
</svg>
