<svg width="19" height="16" viewBox="0 0 19 16" fill="none" xmlns="http://www.w3.org/2000/svg">
<path d="M4.5 14.5L3.8636 15.1364C4.21508 15.4879 4.78492 15.4879 5.1364 15.1364L4.5 14.5ZM8.1364 12.1364C8.48787 11.7849 8.48787 11.2151 8.1364 10.8636C7.78492 10.5121 7.21508 10.5121 6.8636 10.8636L8.1364 12.1364ZM2.1364 10.8636C1.78492 10.5121 1.21508 10.5121 0.863604 10.8636C0.512132 11.2151 0.512132 11.7849 0.863604 12.1364L2.1364 10.8636ZM5.4 1C5.4 0.502944 4.99706 0.1 4.5 0.1C4.00294 0.1 3.6 0.502944 3.6 1H5.4ZM10 2.6C9.50294 2.6 9.1 3.00294 9.1 3.5C9.1 3.99706 9.50294 4.4 10 4.4V2.6ZM16.5 4.4C16.9971 4.4 17.4 3.99706 17.4 3.5C17.4 3.00294 16.9971 2.6 16.5 2.6V4.4ZM10 6.6C9.50294 6.6 9.1 7.00294 9.1 7.5C9.1 7.99706 9.50294 8.4 10 8.4V6.6ZM14.5 8.4C14.9971 8.4 15.4 7.99706 15.4 7.5C15.4 7.00294 14.9971 6.6 14.5 6.6V8.4ZM10 10.6C9.50294 10.6 9.1 11.0029 9.1 11.5C9.1 11.9971 9.50294 12.4 10 12.4V10.6ZM12.5 12.4C12.9971 12.4 13.4 11.9971 13.4 11.5C13.4 11.0029 12.9971 10.6 12.5 10.6V12.4ZM5.1364 15.1364L8.1364 12.1364L6.8636 10.8636L3.8636 13.8636L5.1364 15.1364ZM5.1364 13.8636L2.1364 10.8636L0.863604 12.1364L3.8636 15.1364L5.1364 13.8636ZM3.6 1V14.5H5.4V1H3.6ZM10 4.4H16.5V2.6H10V4.4ZM10 8.4H14.5V6.6H10V8.4ZM10 12.4H12.5V10.6H10V12.4Z" fill="#7DC242"/>
</svg>
