<svg width="23" height="23" viewBox="0 0 23 23" fill="none" xmlns="http://www.w3.org/2000/svg">
<path d="M2.6333 11.5L2.01458 10.8813C1.67287 11.223 1.67287 11.777 2.01458 12.1187L2.6333 11.5ZM11.5 20.3667L10.8812 20.9854C11.223 21.3271 11.777 21.3271 12.1187 20.9854L11.5 20.3667ZM20.3666 11.5L20.9854 12.1187C21.1494 11.9546 21.2416 11.7321 21.2416 11.5H20.3666ZM11.5 2.63333V1.75833C11.2679 1.75833 11.0453 1.85052 10.8812 2.01461L11.5 2.63333ZM2.01458 12.1187L10.8812 20.9854L12.1187 19.7479L3.25202 10.8813L2.01458 12.1187ZM12.1187 20.9854L20.9854 12.1187L19.7479 10.8813L10.8812 19.7479L12.1187 20.9854ZM21.2416 11.5V3.9H19.4916V11.5H21.2416ZM19.1 1.75833H11.5V3.50833H19.1V1.75833ZM10.8812 2.01461L2.01458 10.8813L3.25202 12.1187L12.1187 3.25205L10.8812 2.01461ZM21.2416 3.9C21.2416 2.71719 20.2828 1.75833 19.1 1.75833V3.50833C19.3163 3.50833 19.4916 3.68369 19.4916 3.9H21.2416ZM15.3 8.09166C15.0837 8.09166 14.9083 7.91631 14.9083 7.7H13.1583C13.1583 8.88281 14.1172 9.84166 15.3 9.84166V8.09166ZM15.6916 7.7C15.6916 7.91631 15.5163 8.09166 15.3 8.09166V9.84166C16.4828 9.84166 17.4416 8.88281 17.4416 7.7H15.6916ZM15.3 7.30833C15.5163 7.30833 15.6916 7.48369 15.6916 7.7H17.4416C17.4416 6.51719 16.4828 5.55833 15.3 5.55833V7.30833ZM15.3 5.55833C14.1172 5.55833 13.1583 6.51719 13.1583 7.7H14.9083C14.9083 7.48369 15.0837 7.30833 15.3 7.30833V5.55833Z" fill="#A1A4B2"/>
</svg>
