<svg width="24" height="24" viewBox="0 0 24 24" fill="none" xmlns="http://www.w3.org/2000/svg">
<path d="M8 11.3066H7.3125V12.6816H8V11.3066ZM16 12.6816H16.6875V11.3066H16V12.6816ZM8 15.1696H7.3125V16.5446H8V15.1696ZM16 16.5446H16.6875V15.1696H16V16.5446ZM8 7.45198H7.3125V8.82698H8V7.45198ZM16 8.82698H16.6875V7.45198H16L16 8.82698ZM20 6.85714H20.6875V6.56502L20.4772 6.36225L20 6.85714ZM16 3L16.4772 2.50511L16.2775 2.3125H16V3ZM8 12.6816L16 12.6816V11.3066L8 11.3066V12.6816ZM8 16.5446H16V15.1696L8 15.1696V16.5446ZM8 8.82698L16 8.82698L16 7.45198L8 7.45198V8.82698ZM18.6667 20.3125L5.33333 20.3125L5.33333 21.6875L18.6667 21.6875V20.3125ZM4.6875 19.7143L4.6875 4.28571H3.3125L3.3125 19.7143H4.6875ZM19.3125 6.85714L19.3125 19.7143H20.6875L20.6875 6.85714H19.3125ZM5.33333 3.6875L16 3.6875V2.3125L5.33333 2.3125V3.6875ZM15.5228 3.49489L19.5228 7.35204L20.4772 6.36225L16.4772 2.50511L15.5228 3.49489ZM5.33333 20.3125C4.95287 20.3125 4.6875 20.0213 4.6875 19.7143H3.3125C3.3125 20.8274 4.24104 21.6875 5.33333 21.6875L5.33333 20.3125ZM18.6667 21.6875C19.759 21.6875 20.6875 20.8274 20.6875 19.7143H19.3125C19.3125 20.0213 19.0471 20.3125 18.6667 20.3125V21.6875ZM4.6875 4.28571C4.6875 3.97868 4.95287 3.6875 5.33333 3.6875V2.3125C4.24104 2.3125 3.3125 3.17259 3.3125 4.28571H4.6875Z" fill="#A1A4B2"/>
</svg>
