<svg width="19" height="19" viewBox="0 0 19 19" fill="none" xmlns="http://www.w3.org/2000/svg">
<path d="M3.76786 18V18.875H5.51786V18H3.76786ZM13.4821 18V18.875H15.2321V18H13.4821ZM5.51786 18V15.5708H3.76786V18H5.51786ZM8.28571 12.8036H10.7143V11.0536H8.28571V12.8036ZM13.4821 15.5708V18H15.2321V15.5708H13.4821ZM10.7143 12.8036C12.2431 12.8036 13.4821 14.0423 13.4821 15.5708H15.2321C15.2321 13.0754 13.2092 11.0536 10.7143 11.0536V12.8036ZM5.51786 15.5708C5.51786 14.0423 6.75687 12.8036 8.28571 12.8036V11.0536C5.79077 11.0536 3.76786 13.0754 3.76786 15.5708H5.51786ZM9.5 3.76786C7.67549 3.76786 6.19643 5.24692 6.19643 7.07143H7.94643C7.94643 6.21342 8.64199 5.51786 9.5 5.51786V3.76786ZM12.8036 7.07143C12.8036 5.24692 11.3245 3.76786 9.5 3.76786V5.51786C10.358 5.51786 11.0536 6.21342 11.0536 7.07143H12.8036ZM9.5 10.375C11.3245 10.375 12.8036 8.89594 12.8036 7.07143H11.0536C11.0536 7.92944 10.358 8.625 9.5 8.625V10.375ZM9.5 8.625C8.64199 8.625 7.94643 7.92944 7.94643 7.07143H6.19643C6.19643 8.89594 7.67549 10.375 9.5 10.375V8.625ZM2.21429 1.875H16.7857V0.125H2.21429V1.875ZM17.125 2.21429V16.7857H18.875V2.21429H17.125ZM16.7857 17.125H2.21429V18.875H16.7857V17.125ZM1.875 16.7857V2.21429H0.125V16.7857H1.875ZM2.21429 17.125C2.0269 17.125 1.875 16.9731 1.875 16.7857H0.125C0.125 17.9396 1.06041 18.875 2.21429 18.875V17.125ZM17.125 16.7857C17.125 16.9731 16.9731 17.125 16.7857 17.125V18.875C17.9396 18.875 18.875 17.9396 18.875 16.7857H17.125ZM16.7857 1.875C16.9731 1.875 17.125 2.0269 17.125 2.21429H18.875C18.875 1.0604 17.9396 0.125 16.7857 0.125V1.875ZM2.21429 0.125C1.0604 0.125 0.125 1.06041 0.125 2.21429H1.875C1.875 2.0269 2.0269 1.875 2.21429 1.875V0.125Z" fill="#A1A4B2"/>
</svg>
